<?xml version="1.0" encoding="iso-8859-1"?><svg viewBox="0 0 502.66 502.66" xmlns="http://www.w3.org/2000/svg" xmlns:xlink="http://www.w3.org/1999/xlink"><style>:root>svg{display:none}:root>svg:target{display:block}</style><svg viewBox="0 0 60.734 60.733" id="facebook" xmlns="http://www.w3.org/2000/svg"><path d="M57.378.001H3.352A3.352 3.352 0 000 3.353v54.026a3.353 3.353 0 003.352 3.354h29.086V37.214h-7.914v-9.167h7.914v-6.76c0-7.843 4.789-12.116 11.787-12.116 3.355 0 6.232.251 7.071.36v8.198l-4.854.002c-3.805 0-4.539 1.809-4.539 4.462v5.851h9.078l-1.187 9.166h-7.892v23.52h15.475a3.355 3.355 0 003.355-3.351V3.351a3.352 3.352 0 00-3.354-3.35z"/></svg><svg viewBox="0 0 24 24" id="google" xmlns="http://www.w3.org/2000/svg"><path d="M12.545 10.239v3.821h5.445c-.712 2.315-2.647 3.972-5.445 3.972a6.033 6.033 0 110-12.064c1.498 0 2.866.549 3.921 1.453l2.814-2.814A9.969 9.969 0 0012.545 2C7.021 2 2.543 6.477 2.543 12s4.478 10 10.002 10c8.396 0 10.249-7.85 9.426-11.748l-9.426-.013z"/></svg><svg viewBox="0 0 502.664 502.664" id="icon" xmlns="http://www.w3.org/2000/svg"><g fill="#010002"><path d="M153.821 358.226L0 274.337v-46.463l153.821-83.414v54.574L46.636 250.523l107.185 53.431v54.272zM180.094 387.584L282.103 115.08h32.227L212.084 387.584h-31.99zM348.843 358.226v-54.272l107.164-52.999-107.164-52.59v-53.927l153.821 83.522v46.183l-153.821 84.083z"/></g></svg><svg fill="none" viewBox="0 0 103 23" id="logo" xmlns="http://www.w3.org/2000/svg"><path fill-rule="evenodd" clip-rule="evenodd" d="M5.132 13.16l-.995 1.874v6.293H.916V.837h3.22v8.928L8.351.836h3.22L7.093 9.97l4.479 11.358H8.264L5.132 13.16zm10.985 3.454c0 .742.152 1.264.454 1.566.303.303.707.454 1.215.454.507 0 .912-.151 1.215-.454.302-.302.453-.824.453-1.566V5.55c0-.741-.15-1.263-.453-1.566-.303-.302-.708-.454-1.215-.454-.508 0-.912.152-1.215.454-.302.303-.454.825-.454 1.566v11.065zm-3.22-10.86c0-1.659.42-2.932 1.26-3.82.838-.888 2.048-1.332 3.629-1.332 1.58 0 2.79.444 3.63 1.332.839.888 1.259 2.161 1.259 3.82V16.41c0 1.66-.42 2.933-1.26 3.82-.838.889-2.048 1.332-3.629 1.332-1.58 0-2.79-.444-3.63-1.331-.839-.888-1.258-2.162-1.258-3.82V5.753zm15.055.732v14.841h-2.898V.837h4.04L32.4 13.101V.836h2.869v20.491h-3.308l-4.01-14.841zm9.551-.732c0-1.659.395-2.932 1.186-3.82.79-.888 1.976-1.332 3.556-1.332 1.581 0 2.767.444 3.557 1.332.79.888 1.186 2.161 1.186 3.82v.644h-3.045V5.55c0-.741-.141-1.263-.424-1.566-.283-.302-.678-.454-1.186-.454-.507 0-.902.152-1.185.454-.283.303-.425.825-.425 1.566 0 .703.157 1.322.469 1.86a7.742 7.742 0 001.17 1.521c.469.478.971.957 1.508 1.435.537.478 1.04 1 1.508 1.566.468.566.858 1.21 1.17 1.932.313.722.469 1.57.469 2.546 0 1.66-.405 2.933-1.215 3.82-.81.889-2.005 1.332-3.586 1.332-1.58 0-2.776-.444-3.586-1.331-.81-.888-1.215-2.162-1.215-3.82v-1.26h3.045v1.464c0 .742.151 1.26.454 1.552.302.293.707.439 1.214.439.508 0 .913-.146 1.215-.44.303-.292.454-.81.454-1.55 0-.703-.156-1.323-.468-1.86a7.735 7.735 0 00-1.171-1.522c-.469-.478-.971-.956-1.508-1.434-.536-.478-1.039-1-1.507-1.566A7.975 7.975 0 0137.972 8.3c-.313-.722-.469-1.571-.469-2.547zM48.255.836h9.952v2.928h-3.366v17.563h-3.22V3.764h-3.366V.836zm18.42 20.491a9.056 9.056 0 00-.117-.38 2.958 2.958 0 01-.102-.44c-.03-.175-.049-.4-.059-.673-.01-.273-.014-.614-.014-1.024v-3.22c0-.956-.166-1.63-.498-2.02-.332-.39-.868-.585-1.61-.585h-1.112v8.342h-3.22V.837h4.86c1.678 0 2.892.39 3.644 1.17.751.78 1.127 1.962 1.127 3.542v1.61c0 2.108-.703 3.494-2.108 4.157.82.332 1.38.873 1.683 1.625.303.751.454 1.663.454 2.737v3.161c0 .508.02.951.059 1.332.038.38.136.766.292 1.156h-3.278zM63.164 3.764v6.293h1.258c.605 0 1.079-.156 1.42-.468.342-.312.513-.878.513-1.698v-2.02c0-.741-.132-1.278-.396-1.61-.263-.331-.678-.497-1.244-.497h-1.551zM75.115.836v15.808c0 .741.15 1.258.453 1.551.303.293.708.44 1.215.44.507 0 .912-.147 1.215-.44.302-.293.454-.81.454-1.551V.836h3.044V16.44c0 1.659-.405 2.932-1.215 3.82-.81.888-2.005 1.332-3.586 1.332-1.58 0-2.776-.444-3.586-1.332-.81-.888-1.215-2.162-1.215-3.82V.836h3.22zm17.705 0h9.953v2.928h-3.366v17.563h-3.22V3.764H92.82V.836z" fill="#fff"/><path fill-rule="evenodd" clip-rule="evenodd" d="M83.025 11.485L91.39 1.031V21.94l-8.364-10.455z" fill="#00A4E5"/></svg><svg viewBox="0 0 81 18" id="logo-black" xmlns="http://www.w3.org/2000/svg"><path fill-rule="evenodd" clip-rule="evenodd" d="M4.234 10.3l-.78 1.465v4.926H.935V.655h2.52v6.987l3.3-6.987h2.52L5.769 7.802l3.505 8.889h-2.59l-2.45-6.392zm8.597 2.702c0 .58.118.99.355 1.226.237.237.554.355.95.355.398 0 .715-.118.952-.355.236-.237.355-.645.355-1.226v-8.66c0-.58-.119-.988-.355-1.225-.237-.236-.554-.355-.951-.355-.397 0-.714.119-.95.355-.238.237-.356.646-.356 1.226v8.66zm-2.52-8.499c0-1.298.329-2.294.985-2.99C11.953.82 12.9.472 14.136.472c1.238 0 2.185.348 2.842 1.043.656.695.985 1.691.985 2.99v8.338c0 1.298-.329 2.295-.985 2.99-.657.695-1.604 1.042-2.841 1.042s-2.184-.347-2.84-1.042c-.658-.695-.986-1.692-.986-2.99V4.503zm11.782.573v11.615h-2.268V.655h3.161l2.589 9.598V.655h2.245V16.69h-2.589L22.093 5.076zm7.475-.573c0-1.298.31-2.294.928-2.99C31.114.82 32.042.472 33.279.472c1.237 0 2.165.348 2.784 1.043.618.695.927 1.691.927 2.99v.503h-2.382v-.664c0-.58-.11-.989-.332-1.226-.222-.236-.531-.355-.928-.355s-.706.119-.928.355c-.221.237-.332.646-.332 1.226 0 .55.122 1.035.367 1.455.244.42.55.817.916 1.19.366.375.76.75 1.18 1.123.42.375.813.783 1.18 1.226.366.443.672.947.916 1.512.244.565.366 1.23.366 1.993 0 1.298-.316 2.295-.95 2.99-.634.695-1.57 1.042-2.807 1.042-1.237 0-2.172-.347-2.806-1.042-.634-.695-.95-1.692-.95-2.99v-.985h2.382v1.146c0 .58.118.985.355 1.214.237.229.553.343.95.343.398 0 .715-.114.951-.343.237-.23.355-.634.355-1.215 0-.55-.122-1.034-.366-1.454a6.055 6.055 0 00-.916-1.191c-.367-.375-.76-.749-1.18-1.123-.42-.374-.814-.783-1.18-1.226a6.238 6.238 0 01-.916-1.512c-.245-.565-.367-1.23-.367-1.993zM37.982.655h7.789v2.29h-2.635v13.746h-2.52V2.945h-2.634V.655zM52.398 16.69a7.342 7.342 0 00-.091-.298 2.303 2.303 0 01-.08-.344 4.222 4.222 0 01-.046-.526 22.986 22.986 0 01-.012-.802V12.2c0-.749-.13-1.276-.39-1.581-.259-.305-.679-.458-1.26-.458h-.87v6.529h-2.52V.655h3.803c1.314 0 2.264.305 2.852.916.588.61.882 1.535.882 2.772v1.26c0 1.65-.55 2.734-1.65 3.253.642.26 1.081.683 1.318 1.271.237.588.355 1.302.355 2.142v2.475c0 .397.016.744.046 1.042.03.298.107.6.23.905h-2.567zM49.65 2.945v4.926h.985c.474 0 .844-.122 1.111-.367.268-.244.401-.687.401-1.328V4.595c0-.58-.103-1-.309-1.26-.206-.26-.53-.39-.974-.39H49.65zm9.354-2.29v12.37c0 .58.118.986.355 1.215.236.229.553.343.95.343.398 0 .715-.114.951-.343.237-.23.355-.634.355-1.215V.655h2.383v12.21c0 1.298-.317 2.295-.95 2.99-.635.695-1.57 1.042-2.807 1.042-1.237 0-2.173-.347-2.807-1.042-.633-.695-.95-1.692-.95-2.99V.655h2.52zm13.856 0h7.79v2.29h-2.635v13.746h-2.52V2.945h-2.635V.655z"/><path fill-rule="evenodd" clip-rule="evenodd" d="M65.194 8.988L71.739.807V17.17l-6.545-8.182z" fill="#00A4E5"/></svg><svg viewBox="0 0 6701 5446" shape-rendering="geometricPrecision" text-rendering="geometricPrecision" image-rendering="optimizeQuality" fill-rule="evenodd" clip-rule="evenodd" id="twitter" xmlns="http://www.w3.org/2000/svg"><path class="ffil0" d="M6701 645c-247 109-512 183-790 216 284-170 502-440 604-761-266 158-560 272-873 334C5391 167 5034 0 4638 0c-759 0-1375 616-1375 1375 0 108 12 213 36 313-1143-57-2156-605-2834-1437-118 203-186 439-186 691 0 477 243 898 612 1144-225-7-437-69-623-172v17c0 666 474 1222 1103 1348-115 31-237 48-362 48-89 0-175-9-259-25 175 546 683 944 1284 955-471 369-1063 589-1708 589-111 0-220-7-328-19 608 390 1331 618 2108 618 2529 0 3912-2095 3912-3912 0-60-1-119-4-178 269-194 502-436 686-712z"/></svg></svg>